<?xml version="1.0" encoding="utf-8"?>
<!-- Generator: Adobe Illustrator 17.0.0, SVG Export Plug-In . SVG Version: 6.00 Build 0)  -->
<!DOCTYPE svg PUBLIC "-//W3C//DTD SVG 1.1 Tiny//EN" "http://www.w3.org/Graphics/SVG/1.1/DTD/svg11-tiny.dtd">
<svg version="1.1" baseProfile="tiny" id="svg" class="svg" xmlns="http://www.w3.org/2000/svg" xmlns:xlink="http://www.w3.org/1999/xlink"
	 x="0px" y="0px" width="331.858px" height="97.345px" viewBox="0 0 331.858 97.345" xml:space="preserve">
<path fill="#FFFFFF" stroke="fff" d="M163.262,74.672V61.121h4.345V36.399h-4.345V22.952h22.032l2.38,6.413c3.517-4.861,8.274-8.275,14.791-8.275
	c16.033,0,18.723,11.896,18.723,22.757v17.274h4.862v13.551h-26.067V46.433c0-3.517,0.311-9.62-5.792-9.62
	c-5.275,0-6.517,5.172-6.517,9.62v14.688h7.447v13.551H163.262z"/>
	<path fill="#FFFFFF" stroke="fff" d="M88.961,74.672h23.274c-4.401-3.328-7.401-8.379-7.401-15.309c0-5.55,1.952-10.436,5.323-14.189
		c-0.179-12.16-3.135-23.566-19.334-23.566c-7.137,0-11.999,3.827-15.206,7.448c-1.655-2.482-4.965-7.448-15.412-7.448
		c-6.517,0-11.275,5.586-12.93,7.551L45,23.055H25.45v13.654h4.345v24.412H25.45v13.551h30.722V61.121h-6.207V42.709
		c0-4.241,1.345-6.206,4.655-6.206c4.138,0,4.344,3.413,4.344,11.792v26.377h26.791V60.811h-6.207V44.053
		c0-4.448,1.035-7.551,5.482-7.551c4.862,0,3.931,7.861,3.931,12.826V74.672z"/>
<path fill="#FFFFFF" stroke="fff" d="M160.794,74.672h-16.136l-2.482-4.655c-3.827,5.275-10.241,6.62-13.964,6.62c-9.827,0-20.377-5.275-20.377-17.274
	c0-11.688,9.827-19.033,21.515-19.033c6.103,0,9.723,3,10.241,3.62v-3.62c0-4.655-4.241-5.792-9.827-5.792
	c-6.103,0-11.482,2.586-15.413,4.758l-4.345-11.999c4.138-2.483,13.034-7.344,22.55-7.344c12.413,0,28.238,4.655,28.238,21.308
	v20.171 M139.59,56.522c-0.381-0.634-2.156-3.676-7.48-3.676c-5.07,0-7.352,2.789-7.352,6.719c0,3.549,2.916,5.958,6.719,5.958
	c3.804,0,6.973-2.282,8.113-4.184V56.522z"/>
<path fill="#FFFFFF" stroke="fff" d="M249.826,22.952v24.929c0,8.896,1.345,13.034,5.586,13.034c3.62,0,6.517-3.207,6.517-7.861V36.606h-6.827V22.952h26.791
	v37.962h5.068v13.757h-19.55l-2.793-6.517c-2.276,2.586-5.896,7.965-14.688,7.965c-15.619,0-20.791-8.068-20.791-25.239V36.606
	h-4.345V22.952H249.826z"/>
<circle fill="#ED462E" stroke="fff" cx="308" cy="65.234" r="15"/>
</svg>
