<?xml version="1.0" encoding="utf-8"?>
<!-- Generator: Adobe Illustrator 19.0.0, SVG Export Plug-In . SVG Version: 6.00 Build 0)  -->
<svg version="1.1" id="svg" xmlns="http://www.w3.org/2000/svg" xmlns:xlink="http://www.w3.org/1999/xlink" x="0px" y="0px"
	 viewBox="-81 315.3 299 61.9" style="enable-background:new -81 315.3 299 61.9;" xml:space="preserve">
<style type="text/css">
	.st0{fill:#FFFFFF;stroke:#FFFFFF;}
	.st1{fill:#ED462E;stroke:#FFFFFF;stroke-dasharray:94.2612,94.2612;}
</style>
<path class="st0" d="M58.3,371.7v-13.6h4.3v-24.7h-4.3V320h22l2.4,6.4c3.5-4.9,8.3-8.3,14.8-8.3c16,0,18.7,11.9,18.7,22.8v17.3h4.9
	v13.6H95v-28.2c0-3.5,0.3-9.6-5.8-9.6c-5.3,0-6.5,5.2-6.5,9.6v14.7h7.4v13.6H58.3z"/>
<g>
	<path class="st0" d="M-16,371.7H7.2c-4.4-3.3-7.4-8.4-7.4-15.3c0-5.5,2-10.4,5.3-14.2C5,330,2,318.6-14.2,318.6
		c-7.1,0-12,3.8-15.2,7.4c-1.7-2.5-5-7.4-15.4-7.4c-6.5,0-11.3,5.6-12.9,7.6l-2.3-6.1h-19.6v13.7h4.3v24.4h-4.3v13.6h30.7v-13.6H-55
		v-18.4c0-4.2,1.3-6.2,4.7-6.2c4.1,0,4.3,3.4,4.3,11.8v26.4h26.8v-13.9h-6.2v-16.8c0-4.4,1-7.6,5.5-7.6c4.9,0,3.9,7.9,3.9,12.8
		V371.7z"/>
</g>
<path class="st0" d="M55.8,371.7H39.7l-2.5-4.7c-3.8,5.3-10.2,6.6-14,6.6c-9.8,0-20.4-5.3-20.4-17.3c0-11.7,9.8-19,21.5-19
	c6.1,0,9.7,3,10.2,3.6v-3.6c0-4.7-4.2-5.8-9.8-5.8c-6.1,0-11.5,2.6-15.4,4.8l-4.3-12c4.1-2.5,13-7.3,22.5-7.3
	c12.4,0,28.2,4.7,28.2,21.3v20.2 M34.6,353.5c-0.4-0.6-2.2-3.7-7.5-3.7c-5.1,0-7.4,2.8-7.4,6.7c0,3.5,2.9,6,6.7,6
	c3.8,0,7-2.3,8.1-4.2L34.6,353.5L34.6,353.5z"/>
<path class="st0" d="M144.8,320v24.9c0,8.9,1.3,13,5.6,13c3.6,0,6.5-3.2,6.5-7.9v-16.4h-6.8V320h26.8v38h5.1v13.8h-19.5l-2.8-6.5
	c-2.3,2.6-5.9,8-14.7,8c-15.6,0-20.8-8.1-20.8-25.2v-14.3h-4.3V320H144.8z"/>
<path class="st1" d="M188,362.2c0,8.3,6.7,15,15,15s15-6.7,15-15s-6.7-15-15-15S188,353.9,188,362.2"/>
</svg>
